# xmcd CD database file
#
# Track frame offsets:
#	150
#	24795
#	49392
#	76482
#	100025
#	120985
#	148022
#	168507
#	190735
#	213680
#	237747
#	263910
#
# Disc length: 3799 seconds
#
# Revision: 0
# Processed by: cddbd v1.5PL3 Copyright (c) Steve Scherf et al.
# Submitted via: CDex 1.51
#
DISCID=a60ed50c
DTITLE=TOKYO BLADE - Burning Down Paradise
DYEAR=1995
DGENRE=Metal
TTITLE0=Burning Down Paradise
TTITLE1=Friend In Need
TTITLE2=Flashpoint Serenade
TTITLE3=Kickback
TTITLE4=Wing On A Prayer
TTITLE5=Hot Breath
TTITLE6=Head Full Of Bad Wiring
TTITLE7=Papering The Cracks
TTITLE8=Get Out Of My Face-
TTITLE9=Only The Strong
TTITLE10=Woman And Love
TTITLE11=Dead End Kid
EXTD=YEAR: 1995
EXTT0=
EXTT1=
EXTT2=
EXTT3=
EXTT4=
EXTT5=
EXTT6=
EXTT7=
EXTT8=
EXTT9=
EXTT10=
EXTT11=
PLAYORDER=
